<mxfile host="Electron" modified="2023-11-28T19:59:16.979Z" agent="Mozilla/5.0 (Windows NT 10.0; Win64; x64) AppleWebKit/537.36 (KHTML, like Gecko) draw.io/21.7.5 Chrome/114.0.5735.289 Electron/25.8.1 Safari/537.36" etag="qKK-8gCY5NJMH61pX-2O" version="21.7.5" type="device">
  <diagram name="Сторінка-1" id="pCvThVCGUNYpHz7dwZNn">
    <mxGraphModel dx="1036" dy="698" grid="1" gridSize="10" guides="1" tooltips="1" connect="1" arrows="1" fold="1" page="1" pageScale="1" pageWidth="827" pageHeight="1169" math="0" shadow="0">
      <root>
        <mxCell id="0" />
        <mxCell id="1" parent="0" />
        <mxCell id="_OMjM54HjGwO8rCLwbsG-3" value="" style="edgeStyle=orthogonalEdgeStyle;rounded=0;orthogonalLoop=1;jettySize=auto;html=1;" parent="1" source="_OMjM54HjGwO8rCLwbsG-1" target="_OMjM54HjGwO8rCLwbsG-2" edge="1">
          <mxGeometry relative="1" as="geometry" />
        </mxCell>
        <mxCell id="_OMjM54HjGwO8rCLwbsG-1" value="func for y" style="ellipse;whiteSpace=wrap;html=1;aspect=fixed;" parent="1" vertex="1">
          <mxGeometry x="40" y="20" width="80" height="80" as="geometry" />
        </mxCell>
        <mxCell id="_OMjM54HjGwO8rCLwbsG-5" value="" style="edgeStyle=orthogonalEdgeStyle;rounded=0;orthogonalLoop=1;jettySize=auto;html=1;" parent="1" source="_OMjM54HjGwO8rCLwbsG-2" target="_OMjM54HjGwO8rCLwbsG-4" edge="1">
          <mxGeometry relative="1" as="geometry" />
        </mxCell>
        <mxCell id="_OMjM54HjGwO8rCLwbsG-2" value="double x" style="shape=parallelogram;perimeter=parallelogramPerimeter;whiteSpace=wrap;html=1;fixedSize=1;" parent="1" vertex="1">
          <mxGeometry x="20" y="130" width="120" height="60" as="geometry" />
        </mxCell>
        <mxCell id="_OMjM54HjGwO8rCLwbsG-7" value="" style="edgeStyle=orthogonalEdgeStyle;rounded=0;orthogonalLoop=1;jettySize=auto;html=1;" parent="1" source="_OMjM54HjGwO8rCLwbsG-4" target="_OMjM54HjGwO8rCLwbsG-6" edge="1">
          <mxGeometry relative="1" as="geometry" />
        </mxCell>
        <mxCell id="_OMjM54HjGwO8rCLwbsG-4" value="&lt;font style=&quot;font-size: 13px; background-color: rgb(24, 20, 29);&quot;&gt;double y&amp;nbsp; =&amp;nbsp;-&lt;span style=&quot;font-family: Consolas, &amp;quot;Courier New&amp;quot;, monospace; color: rgb(247, 252, 233); font-style: italic;&quot;&gt;0.5&lt;/span&gt;&lt;span style=&quot;color: rgb(187, 187, 187); font-family: Consolas, &amp;quot;Courier New&amp;quot;, monospace;&quot;&gt; &lt;/span&gt;&lt;span style=&quot;font-family: Consolas, &amp;quot;Courier New&amp;quot;, monospace; color: rgb(250, 176, 203); font-style: italic;&quot;&gt;*&lt;/span&gt;&lt;span style=&quot;color: rgb(187, 187, 187); font-family: Consolas, &amp;quot;Courier New&amp;quot;, monospace;&quot;&gt; &lt;/span&gt;&lt;span style=&quot;font-family: Consolas, &amp;quot;Courier New&amp;quot;, monospace; color: rgb(255, 203, 154);&quot;&gt;log1pf&lt;/span&gt;&lt;span style=&quot;color: rgb(187, 187, 187); font-family: Consolas, &amp;quot;Courier New&amp;quot;, monospace;&quot;&gt;(&lt;/span&gt;&lt;span style=&quot;font-family: Consolas, &amp;quot;Courier New&amp;quot;, monospace; color: rgb(250, 176, 203); font-style: italic;&quot;&gt;-&lt;/span&gt;&lt;span style=&quot;font-family: Consolas, &amp;quot;Courier New&amp;quot;, monospace; color: rgb(247, 252, 233); font-style: italic;&quot;&gt;2&lt;/span&gt;&lt;span style=&quot;color: rgb(187, 187, 187); font-family: Consolas, &amp;quot;Courier New&amp;quot;, monospace;&quot;&gt; &lt;/span&gt;&lt;span style=&quot;font-family: Consolas, &amp;quot;Courier New&amp;quot;, monospace; color: rgb(250, 176, 203); font-style: italic;&quot;&gt;*&lt;/span&gt;&lt;span style=&quot;color: rgb(187, 187, 187); font-family: Consolas, &amp;quot;Courier New&amp;quot;, monospace;&quot;&gt; &lt;/span&gt;&lt;span style=&quot;font-family: Consolas, &amp;quot;Courier New&amp;quot;, monospace; color: rgb(183, 255, 154); font-style: italic;&quot;&gt;x&lt;/span&gt;&lt;span style=&quot;color: rgb(187, 187, 187); font-family: Consolas, &amp;quot;Courier New&amp;quot;, monospace;&quot;&gt; &lt;/span&gt;&lt;span style=&quot;font-family: Consolas, &amp;quot;Courier New&amp;quot;, monospace; color: rgb(250, 176, 203); font-style: italic;&quot;&gt;*&lt;/span&gt;&lt;span style=&quot;color: rgb(187, 187, 187); font-family: Consolas, &amp;quot;Courier New&amp;quot;, monospace;&quot;&gt; &lt;/span&gt;&lt;span style=&quot;font-family: Consolas, &amp;quot;Courier New&amp;quot;, monospace; color: rgb(247, 252, 233); font-style: italic;&quot;&gt;0.5&lt;/span&gt;&lt;span style=&quot;color: rgb(187, 187, 187); font-family: Consolas, &amp;quot;Courier New&amp;quot;, monospace;&quot;&gt; &lt;/span&gt;&lt;span style=&quot;font-family: Consolas, &amp;quot;Courier New&amp;quot;, monospace; color: rgb(250, 176, 203); font-style: italic;&quot;&gt;+&lt;/span&gt;&lt;span style=&quot;color: rgb(187, 187, 187); font-family: Consolas, &amp;quot;Courier New&amp;quot;, monospace;&quot;&gt; &lt;/span&gt;&lt;span style=&quot;font-family: Consolas, &amp;quot;Courier New&amp;quot;, monospace; color: rgb(255, 203, 154);&quot;&gt;pow&lt;/span&gt;&lt;span style=&quot;color: rgb(187, 187, 187); font-family: Consolas, &amp;quot;Courier New&amp;quot;, monospace;&quot;&gt;(&lt;/span&gt;&lt;span style=&quot;font-family: Consolas, &amp;quot;Courier New&amp;quot;, monospace; color: rgb(183, 255, 154); font-style: italic;&quot;&gt;x&lt;/span&gt;&lt;span style=&quot;color: rgb(187, 187, 187); font-family: Consolas, &amp;quot;Courier New&amp;quot;, monospace;&quot;&gt;, &lt;/span&gt;&lt;span style=&quot;font-family: Consolas, &amp;quot;Courier New&amp;quot;, monospace; color: rgb(247, 252, 233); font-style: italic;&quot;&gt;2&lt;/span&gt;&lt;span style=&quot;color: rgb(187, 187, 187); font-family: Consolas, &amp;quot;Courier New&amp;quot;, monospace;&quot;&gt;))&lt;/span&gt;&lt;/font&gt;" style="rounded=1;whiteSpace=wrap;html=1;" parent="1" vertex="1">
          <mxGeometry x="20" y="220" width="120" height="60" as="geometry" />
        </mxCell>
        <mxCell id="_OMjM54HjGwO8rCLwbsG-6" value="return y" style="whiteSpace=wrap;html=1;rounded=1;" parent="1" vertex="1">
          <mxGeometry x="20" y="360" width="120" height="60" as="geometry" />
        </mxCell>
        <mxCell id="_OMjM54HjGwO8rCLwbsG-10" value="" style="edgeStyle=orthogonalEdgeStyle;rounded=0;orthogonalLoop=1;jettySize=auto;html=1;" parent="1" source="_OMjM54HjGwO8rCLwbsG-8" target="_OMjM54HjGwO8rCLwbsG-9" edge="1">
          <mxGeometry relative="1" as="geometry" />
        </mxCell>
        <mxCell id="_OMjM54HjGwO8rCLwbsG-8" value="func for sum&lt;br&gt;" style="ellipse;whiteSpace=wrap;html=1;aspect=fixed;" parent="1" vertex="1">
          <mxGeometry x="240" y="20" width="80" height="80" as="geometry" />
        </mxCell>
        <mxCell id="_OMjM54HjGwO8rCLwbsG-12" value="" style="edgeStyle=orthogonalEdgeStyle;rounded=0;orthogonalLoop=1;jettySize=auto;html=1;" parent="1" source="_OMjM54HjGwO8rCLwbsG-9" target="_OMjM54HjGwO8rCLwbsG-11" edge="1">
          <mxGeometry relative="1" as="geometry" />
        </mxCell>
        <mxCell id="_OMjM54HjGwO8rCLwbsG-9" value="int n, double x" style="shape=parallelogram;perimeter=parallelogramPerimeter;whiteSpace=wrap;html=1;fixedSize=1;" parent="1" vertex="1">
          <mxGeometry x="220" y="130" width="120" height="60" as="geometry" />
        </mxCell>
        <mxCell id="_OMjM54HjGwO8rCLwbsG-14" value="" style="edgeStyle=orthogonalEdgeStyle;rounded=0;orthogonalLoop=1;jettySize=auto;html=1;" parent="1" source="_OMjM54HjGwO8rCLwbsG-11" target="_OMjM54HjGwO8rCLwbsG-13" edge="1">
          <mxGeometry relative="1" as="geometry" />
        </mxCell>
        <mxCell id="_OMjM54HjGwO8rCLwbsG-11" value="for b =0, b &amp;lt; n, b++" style="shape=trapezoid;perimeter=trapezoidPerimeter;whiteSpace=wrap;html=1;fixedSize=1;" parent="1" vertex="1">
          <mxGeometry x="220" y="210" width="120" height="60" as="geometry" />
        </mxCell>
        <mxCell id="_OMjM54HjGwO8rCLwbsG-16" value="" style="edgeStyle=orthogonalEdgeStyle;rounded=0;orthogonalLoop=1;jettySize=auto;html=1;" parent="1" source="_OMjM54HjGwO8rCLwbsG-13" target="_OMjM54HjGwO8rCLwbsG-15" edge="1">
          <mxGeometry relative="1" as="geometry" />
        </mxCell>
        <mxCell id="_OMjM54HjGwO8rCLwbsG-13" value="&lt;font style=&quot;font-size: 14px; background-color: rgb(24, 20, 29);&quot;&gt;double num1 =&amp;nbsp;pow&lt;span style=&quot;color: rgb(187, 187, 187); font-family: Consolas, &amp;quot;Courier New&amp;quot;, monospace;&quot;&gt;(&lt;/span&gt;&lt;span style=&quot;font-family: Consolas, &amp;quot;Courier New&amp;quot;, monospace; color: rgb(183, 255, 154); font-style: italic;&quot;&gt;x&lt;/span&gt;&lt;span style=&quot;color: rgb(187, 187, 187); font-family: Consolas, &amp;quot;Courier New&amp;quot;, monospace;&quot;&gt;, (&lt;/span&gt;&lt;span style=&quot;font-family: Consolas, &amp;quot;Courier New&amp;quot;, monospace; color: rgb(194, 165, 233);&quot;&gt;b&lt;/span&gt;&lt;span style=&quot;color: rgb(187, 187, 187); font-family: Consolas, &amp;quot;Courier New&amp;quot;, monospace;&quot;&gt; &lt;/span&gt;&lt;span style=&quot;font-family: Consolas, &amp;quot;Courier New&amp;quot;, monospace; color: rgb(250, 176, 203); font-style: italic;&quot;&gt;+&lt;/span&gt;&lt;span style=&quot;color: rgb(187, 187, 187); font-family: Consolas, &amp;quot;Courier New&amp;quot;, monospace;&quot;&gt; &lt;/span&gt;&lt;span style=&quot;font-family: Consolas, &amp;quot;Courier New&amp;quot;, monospace; color: rgb(247, 252, 233); font-style: italic;&quot;&gt;1&lt;/span&gt;&lt;span style=&quot;color: rgb(187, 187, 187); font-family: Consolas, &amp;quot;Courier New&amp;quot;, monospace;&quot;&gt;)) &lt;/span&gt;&lt;span style=&quot;font-family: Consolas, &amp;quot;Courier New&amp;quot;, monospace; color: rgb(250, 176, 203); font-style: italic;&quot;&gt;*&lt;/span&gt;&lt;span style=&quot;color: rgb(187, 187, 187); font-family: Consolas, &amp;quot;Courier New&amp;quot;, monospace;&quot;&gt; &lt;/span&gt;&lt;span style=&quot;font-family: Consolas, &amp;quot;Courier New&amp;quot;, monospace; color: rgb(255, 203, 154);&quot;&gt;cos&lt;/span&gt;&lt;span style=&quot;color: rgb(187, 187, 187); font-family: Consolas, &amp;quot;Courier New&amp;quot;, monospace;&quot;&gt;((&lt;/span&gt;&lt;span style=&quot;font-family: Consolas, &amp;quot;Courier New&amp;quot;, monospace; color: rgb(194, 165, 233);&quot;&gt;b&lt;/span&gt;&lt;span style=&quot;color: rgb(187, 187, 187); font-family: Consolas, &amp;quot;Courier New&amp;quot;, monospace;&quot;&gt; &lt;/span&gt;&lt;span style=&quot;font-family: Consolas, &amp;quot;Courier New&amp;quot;, monospace; color: rgb(250, 176, 203); font-style: italic;&quot;&gt;+&lt;/span&gt;&lt;span style=&quot;color: rgb(187, 187, 187); font-family: Consolas, &amp;quot;Courier New&amp;quot;, monospace;&quot;&gt; &lt;/span&gt;&lt;span style=&quot;font-family: Consolas, &amp;quot;Courier New&amp;quot;, monospace; color: rgb(247, 252, 233); font-style: italic;&quot;&gt;1&lt;/span&gt;&lt;span style=&quot;color: rgb(187, 187, 187); font-family: Consolas, &amp;quot;Courier New&amp;quot;, monospace;&quot;&gt;) &lt;/span&gt;&lt;span style=&quot;font-family: Consolas, &amp;quot;Courier New&amp;quot;, monospace; color: rgb(250, 176, 203); font-style: italic;&quot;&gt;*&lt;/span&gt;&lt;span style=&quot;color: rgb(187, 187, 187); font-family: Consolas, &amp;quot;Courier New&amp;quot;, monospace;&quot;&gt; (&lt;/span&gt;&lt;span style=&quot;font-family: Consolas, &amp;quot;Courier New&amp;quot;, monospace; color: rgb(218, 251, 172);&quot;&gt;M_PI&lt;/span&gt;&lt;span style=&quot;color: rgb(187, 187, 187); font-family: Consolas, &amp;quot;Courier New&amp;quot;, monospace;&quot;&gt; &lt;/span&gt;&lt;span style=&quot;font-family: Consolas, &amp;quot;Courier New&amp;quot;, monospace; color: rgb(250, 176, 203); font-style: italic;&quot;&gt;/&lt;/span&gt;&lt;span style=&quot;color: rgb(187, 187, 187); font-family: Consolas, &amp;quot;Courier New&amp;quot;, monospace;&quot;&gt; &lt;/span&gt;&lt;span style=&quot;font-family: Consolas, &amp;quot;Courier New&amp;quot;, monospace; color: rgb(247, 252, 233); font-style: italic;&quot;&gt;3&lt;/span&gt;&lt;span style=&quot;color: rgb(187, 187, 187); font-family: Consolas, &amp;quot;Courier New&amp;quot;, monospace;&quot;&gt;))&lt;/span&gt;&lt;/font&gt;" style="rounded=1;whiteSpace=wrap;html=1;" parent="1" vertex="1">
          <mxGeometry x="190" y="310" width="180" height="90" as="geometry" />
        </mxCell>
        <mxCell id="_OMjM54HjGwO8rCLwbsG-27" value="" style="edgeStyle=orthogonalEdgeStyle;rounded=0;orthogonalLoop=1;jettySize=auto;html=1;" parent="1" source="_OMjM54HjGwO8rCLwbsG-15" target="_OMjM54HjGwO8rCLwbsG-26" edge="1">
          <mxGeometry relative="1" as="geometry" />
        </mxCell>
        <mxCell id="_OMjM54HjGwO8rCLwbsG-15" value="double sum +=num1&lt;span style=&quot;font-family: Consolas, &amp;quot;Courier New&amp;quot;, monospace; font-size: 14px; color: rgb(250, 176, 203); font-style: italic;&quot;&gt;/&lt;/span&gt;&lt;span style=&quot;color: rgb(187, 187, 187); font-family: Consolas, &amp;quot;Courier New&amp;quot;, monospace; font-size: 14px;&quot;&gt;(&lt;/span&gt;&lt;span style=&quot;font-family: Consolas, &amp;quot;Courier New&amp;quot;, monospace; font-size: 14px; color: rgb(194, 165, 233);&quot;&gt;b&lt;/span&gt;&lt;span style=&quot;font-family: Consolas, &amp;quot;Courier New&amp;quot;, monospace; font-size: 14px; color: rgb(250, 176, 203); font-style: italic;&quot;&gt;+&lt;/span&gt;&lt;span style=&quot;font-family: Consolas, &amp;quot;Courier New&amp;quot;, monospace; font-size: 14px; color: rgb(247, 252, 233); font-style: italic;&quot;&gt;1&lt;/span&gt;&lt;span style=&quot;color: rgb(187, 187, 187); font-family: Consolas, &amp;quot;Courier New&amp;quot;, monospace; font-size: 14px;&quot;&gt;)&lt;/span&gt;" style="rounded=1;whiteSpace=wrap;html=1;" parent="1" vertex="1">
          <mxGeometry x="175" y="420" width="210" height="60" as="geometry" />
        </mxCell>
        <mxCell id="_OMjM54HjGwO8rCLwbsG-31" value="" style="edgeStyle=orthogonalEdgeStyle;rounded=0;orthogonalLoop=1;jettySize=auto;html=1;" parent="1" source="_OMjM54HjGwO8rCLwbsG-17" target="_OMjM54HjGwO8rCLwbsG-30" edge="1">
          <mxGeometry relative="1" as="geometry" />
        </mxCell>
        <mxCell id="_OMjM54HjGwO8rCLwbsG-17" value="Start" style="ellipse;whiteSpace=wrap;html=1;" parent="1" vertex="1">
          <mxGeometry x="600" y="40" width="120" height="40" as="geometry" />
        </mxCell>
        <mxCell id="_OMjM54HjGwO8rCLwbsG-22" value="return sum;" style="whiteSpace=wrap;html=1;rounded=1;" parent="1" vertex="1">
          <mxGeometry x="220" y="610" width="120" height="60" as="geometry" />
        </mxCell>
        <mxCell id="_OMjM54HjGwO8rCLwbsG-28" value="" style="edgeStyle=orthogonalEdgeStyle;rounded=0;orthogonalLoop=1;jettySize=auto;html=1;" parent="1" source="_OMjM54HjGwO8rCLwbsG-26" target="_OMjM54HjGwO8rCLwbsG-22" edge="1">
          <mxGeometry relative="1" as="geometry" />
        </mxCell>
        <mxCell id="_OMjM54HjGwO8rCLwbsG-26" value="" style="shape=trapezoid;perimeter=trapezoidPerimeter;whiteSpace=wrap;html=1;fixedSize=1;rotation=-180;" parent="1" vertex="1">
          <mxGeometry x="220" y="510" width="120" height="60" as="geometry" />
        </mxCell>
        <mxCell id="_OMjM54HjGwO8rCLwbsG-33" value="" style="edgeStyle=orthogonalEdgeStyle;rounded=0;orthogonalLoop=1;jettySize=auto;html=1;" parent="1" source="_OMjM54HjGwO8rCLwbsG-30" target="_OMjM54HjGwO8rCLwbsG-32" edge="1">
          <mxGeometry relative="1" as="geometry" />
        </mxCell>
        <mxCell id="_OMjM54HjGwO8rCLwbsG-30" value="&lt;div style=&quot;color: rgb(187, 187, 187); font-family: Consolas, &amp;quot;Courier New&amp;quot;, monospace; font-size: 14px; line-height: 19px;&quot;&gt;for(&lt;span style=&quot;color: rgb(209, 147, 228);&quot;&gt;double&lt;/span&gt; &lt;span style=&quot;color: rgb(194, 165, 233);&quot;&gt;x&lt;/span&gt; &lt;span style=&quot;color: rgb(250, 176, 203); font-style: italic;&quot;&gt;=&lt;/span&gt;&lt;span style=&quot;color: rgb(247, 252, 233); font-style: italic;&quot;&gt;0.10&lt;/span&gt;; &lt;span style=&quot;color: rgb(194, 165, 233);&quot;&gt;x&lt;/span&gt;&lt;span style=&quot;color: rgb(250, 176, 203); font-style: italic;&quot;&gt;&amp;lt;=&lt;/span&gt;&lt;span style=&quot;color: rgb(247, 252, 233); font-style: italic;&quot;&gt;0.80&lt;/span&gt;; &lt;span style=&quot;color: rgb(194, 165, 233);&quot;&gt;x&lt;/span&gt;&lt;span style=&quot;color: rgb(250, 176, 203); font-style: italic;&quot;&gt;+=&lt;/span&gt;&lt;span style=&quot;color: rgb(247, 252, 233); font-style: italic;&quot;&gt;0.0045&lt;/span&gt;)&lt;/div&gt;" style="shape=trapezoid;perimeter=trapezoidPerimeter;whiteSpace=wrap;html=1;fixedSize=1;" parent="1" vertex="1">
          <mxGeometry x="590" y="150" width="140" height="80" as="geometry" />
        </mxCell>
        <mxCell id="_OMjM54HjGwO8rCLwbsG-35" value="" style="edgeStyle=orthogonalEdgeStyle;rounded=0;orthogonalLoop=1;jettySize=auto;html=1;" parent="1" source="_OMjM54HjGwO8rCLwbsG-32" target="_OMjM54HjGwO8rCLwbsG-34" edge="1">
          <mxGeometry relative="1" as="geometry" />
        </mxCell>
        <mxCell id="_OMjM54HjGwO8rCLwbsG-32" value="cout &amp;lt;&amp;lt; &quot;x=&quot; &amp;lt;&amp;lt; x" style="rounded=1;whiteSpace=wrap;html=1;" parent="1" vertex="1">
          <mxGeometry x="600" y="270" width="120" height="60" as="geometry" />
        </mxCell>
        <mxCell id="_OMjM54HjGwO8rCLwbsG-37" value="" style="edgeStyle=orthogonalEdgeStyle;rounded=0;orthogonalLoop=1;jettySize=auto;html=1;" parent="1" source="_OMjM54HjGwO8rCLwbsG-34" target="_OMjM54HjGwO8rCLwbsG-36" edge="1">
          <mxGeometry relative="1" as="geometry" />
        </mxCell>
        <mxCell id="_OMjM54HjGwO8rCLwbsG-34" value="cout &amp;lt;&amp;lt; &quot;sn&quot;" style="whiteSpace=wrap;html=1;rounded=1;" parent="1" vertex="1">
          <mxGeometry x="600" y="370" width="120" height="60" as="geometry" />
        </mxCell>
        <mxCell id="_OMjM54HjGwO8rCLwbsG-39" value="" style="edgeStyle=orthogonalEdgeStyle;rounded=0;orthogonalLoop=1;jettySize=auto;html=1;" parent="1" source="_OMjM54HjGwO8rCLwbsG-36" target="_OMjM54HjGwO8rCLwbsG-38" edge="1">
          <mxGeometry relative="1" as="geometry" />
        </mxCell>
        <mxCell id="_OMjM54HjGwO8rCLwbsG-36" value="&lt;div style=&quot;color: rgb(187, 187, 187); font-family: Consolas, &amp;quot;Courier New&amp;quot;, monospace; font-size: 14px; line-height: 19px;&quot;&gt;for(&lt;span style=&quot;color: rgb(209, 147, 228);&quot;&gt;int&lt;/span&gt; &lt;span style=&quot;color: rgb(194, 165, 233);&quot;&gt;i&lt;/span&gt; &lt;span style=&quot;color: rgb(250, 176, 203); font-style: italic;&quot;&gt;=&lt;/span&gt; &lt;span style=&quot;color: rgb(247, 252, 233); font-style: italic;&quot;&gt;1&lt;/span&gt;; &lt;span style=&quot;color: rgb(194, 165, 233);&quot;&gt;i&lt;/span&gt; &lt;span style=&quot;color: rgb(250, 176, 203); font-style: italic;&quot;&gt;&amp;lt;=&lt;/span&gt; &lt;span style=&quot;color: rgb(247, 252, 233); font-style: italic;&quot;&gt;35&lt;/span&gt;; &lt;span style=&quot;color: rgb(194, 165, 233);&quot;&gt;i&lt;/span&gt;&lt;span style=&quot;color: rgb(250, 176, 203); font-style: italic;&quot;&gt;++&lt;/span&gt;)&lt;/div&gt;" style="shape=trapezoid;perimeter=trapezoidPerimeter;whiteSpace=wrap;html=1;fixedSize=1;" parent="1" vertex="1">
          <mxGeometry x="570" y="450" width="180" height="60" as="geometry" />
        </mxCell>
        <mxCell id="_OMjM54HjGwO8rCLwbsG-50" value="" style="edgeStyle=orthogonalEdgeStyle;rounded=0;orthogonalLoop=1;jettySize=auto;html=1;" parent="1" source="_OMjM54HjGwO8rCLwbsG-38" target="_OMjM54HjGwO8rCLwbsG-49" edge="1">
          <mxGeometry relative="1" as="geometry" />
        </mxCell>
        <mxCell id="_OMjM54HjGwO8rCLwbsG-38" value="func for sum" style="ellipse;whiteSpace=wrap;html=1;" parent="1" vertex="1">
          <mxGeometry x="620" y="545" width="80" height="80" as="geometry" />
        </mxCell>
        <mxCell id="_OMjM54HjGwO8rCLwbsG-43" value="" style="edgeStyle=orthogonalEdgeStyle;rounded=0;orthogonalLoop=1;jettySize=auto;html=1;" parent="1" target="_OMjM54HjGwO8rCLwbsG-42" edge="1">
          <mxGeometry relative="1" as="geometry">
            <mxPoint x="660" y="790" as="sourcePoint" />
          </mxGeometry>
        </mxCell>
        <mxCell id="_OMjM54HjGwO8rCLwbsG-46" value="" style="edgeStyle=orthogonalEdgeStyle;rounded=0;orthogonalLoop=1;jettySize=auto;html=1;" parent="1" source="_OMjM54HjGwO8rCLwbsG-42" target="_OMjM54HjGwO8rCLwbsG-45" edge="1">
          <mxGeometry relative="1" as="geometry" />
        </mxCell>
        <mxCell id="_OMjM54HjGwO8rCLwbsG-42" value="&lt;div style=&quot;color: rgb(187, 187, 187); font-family: Consolas, &amp;quot;Courier New&amp;quot;, monospace; font-size: 14px; line-height: 19px;&quot;&gt;break;&lt;/div&gt;" style="shape=trapezoid;perimeter=trapezoidPerimeter;whiteSpace=wrap;html=1;fixedSize=1;rotation=-180;" parent="1" vertex="1">
          <mxGeometry x="570" y="750" width="180" height="60" as="geometry" />
        </mxCell>
        <mxCell id="_OMjM54HjGwO8rCLwbsG-48" value="" style="edgeStyle=orthogonalEdgeStyle;rounded=0;orthogonalLoop=1;jettySize=auto;html=1;" parent="1" source="_OMjM54HjGwO8rCLwbsG-45" target="_OMjM54HjGwO8rCLwbsG-47" edge="1">
          <mxGeometry relative="1" as="geometry" />
        </mxCell>
        <mxCell id="_OMjM54HjGwO8rCLwbsG-45" value="cout &amp;lt;&amp;lt; &quot;y =&quot;" style="rounded=1;whiteSpace=wrap;html=1;" parent="1" vertex="1">
          <mxGeometry x="600" y="860" width="120" height="60" as="geometry" />
        </mxCell>
        <mxCell id="_OMjM54HjGwO8rCLwbsG-53" value="" style="edgeStyle=orthogonalEdgeStyle;rounded=0;orthogonalLoop=1;jettySize=auto;html=1;" parent="1" source="_OMjM54HjGwO8rCLwbsG-47" target="_OMjM54HjGwO8rCLwbsG-52" edge="1">
          <mxGeometry relative="1" as="geometry" />
        </mxCell>
        <mxCell id="_OMjM54HjGwO8rCLwbsG-47" value="func for y" style="ellipse;whiteSpace=wrap;html=1;rounded=1;" parent="1" vertex="1">
          <mxGeometry x="620" y="950" width="80" height="80" as="geometry" />
        </mxCell>
        <mxCell id="_OMjM54HjGwO8rCLwbsG-51" value="" style="edgeStyle=orthogonalEdgeStyle;rounded=0;orthogonalLoop=1;jettySize=auto;html=1;" parent="1" source="_OMjM54HjGwO8rCLwbsG-49" target="_OMjM54HjGwO8rCLwbsG-42" edge="1">
          <mxGeometry relative="1" as="geometry" />
        </mxCell>
        <mxCell id="_OMjM54HjGwO8rCLwbsG-49" value="printf sum" style="rounded=1;whiteSpace=wrap;html=1;" parent="1" vertex="1">
          <mxGeometry x="600" y="650" width="120" height="60" as="geometry" />
        </mxCell>
        <mxCell id="_OMjM54HjGwO8rCLwbsG-55" value="" style="edgeStyle=orthogonalEdgeStyle;rounded=0;orthogonalLoop=1;jettySize=auto;html=1;" parent="1" source="_OMjM54HjGwO8rCLwbsG-52" target="_OMjM54HjGwO8rCLwbsG-54" edge="1">
          <mxGeometry relative="1" as="geometry" />
        </mxCell>
        <mxCell id="_OMjM54HjGwO8rCLwbsG-52" value="printf y" style="rounded=1;whiteSpace=wrap;html=1;" parent="1" vertex="1">
          <mxGeometry x="600" y="1050" width="120" height="60" as="geometry" />
        </mxCell>
        <mxCell id="_OMjM54HjGwO8rCLwbsG-57" value="" style="edgeStyle=orthogonalEdgeStyle;rounded=0;orthogonalLoop=1;jettySize=auto;html=1;" parent="1" source="_OMjM54HjGwO8rCLwbsG-54" target="_OMjM54HjGwO8rCLwbsG-56" edge="1">
          <mxGeometry relative="1" as="geometry" />
        </mxCell>
        <mxCell id="_OMjM54HjGwO8rCLwbsG-54" value="" style="shape=trapezoid;perimeter=trapezoidPerimeter;whiteSpace=wrap;html=1;fixedSize=1;rotation=-180;" parent="1" vertex="1">
          <mxGeometry x="600" y="1130" width="120" height="40" as="geometry" />
        </mxCell>
        <mxCell id="_OMjM54HjGwO8rCLwbsG-56" value="END" style="ellipse;whiteSpace=wrap;html=1;" parent="1" vertex="1">
          <mxGeometry x="600" y="1190" width="120" height="30" as="geometry" />
        </mxCell>
      </root>
    </mxGraphModel>
  </diagram>
</mxfile>
